<svg width="16" height="16" viewBox="0 0 16 16" fill="none" xmlns="http://www.w3.org/2000/svg">
<g clip-path="url(#clip0_2_38)">
<rect width="16" height="16" rx="8" fill="#E2E6EE"/>
<path d="M10.9156 11.3333C7.3608 11.3384 4.66289 8.60813 4.66669 5.08438C4.66669 4.85427 4.85324 4.66667 5.08336 4.66667H6.18309C6.38958 4.66667 6.56499 4.81839 6.59531 5.02264C6.66798 5.51217 6.81051 5.98874 7.01856 6.4378L7.06137 6.53022C7.12091 6.65872 7.08055 6.8114 6.9653 6.8937C6.62473 7.13692 6.49457 7.62649 6.75989 8.00849C7.09284 8.48785 7.51254 8.90746 7.9918 9.24026C8.37378 9.50551 8.86327 9.37537 9.10648 9.03486C9.18884 8.91955 9.34161 8.87917 9.47019 8.93873L9.56218 8.98135C10.0113 9.18938 10.4879 9.33191 10.9774 9.40457C11.1817 9.43488 11.3334 9.61029 11.3334 9.81678V10.9167C11.3334 11.1468 11.1464 11.3333 10.9162 11.3333L10.9156 11.3333Z" fill="#79819A"/>
</g>
<defs>
<clipPath id="clip0_2_38">
<rect width="16" height="16" rx="8" fill="white"/>
</clipPath>
</defs>
</svg>
