<svg width="12" height="12" viewBox="0 0 12 12" fill="none" xmlns="http://www.w3.org/2000/svg">
<g clip-path="url(#clip0_2_223)">
<rect width="12" height="12" fill="#E1E7FE"/>
<path d="M4.89532 8.6672C4.26339 8.6672 3.69369 8.28654 3.45182 7.70274C3.20995 7.11893 3.34355 6.44691 3.79032 6.00001L4.45344 5.33688L4.89532 5.77876L4.23251 6.44157C3.99565 6.67843 3.90315 7.02365 3.98984 7.3472C4.07654 7.67075 4.32926 7.92348 4.65281 8.01017C4.97636 8.09687 5.32159 8.00436 5.55844 7.76751L6.22126 7.10469L6.66313 7.54688L6.00032 8.20969C5.70784 8.50361 5.30996 8.66834 4.89532 8.6672ZM5.11626 7.32563L4.67438 6.88376L6.88407 4.67407L7.32594 5.11594L5.11657 7.32532L5.11626 7.32563ZM7.54719 6.66282L7.10501 6.22094L7.76782 5.55813C8.0079 5.32198 8.10288 4.97521 8.01664 4.64969C7.93041 4.32416 7.6762 4.0699 7.3507 3.98358C7.02519 3.89727 6.6784 3.99217 6.44219 4.23219L5.77907 4.89501L5.33719 4.45313L6.00032 3.79001C6.61128 3.18437 7.59687 3.18653 8.20518 3.79483C8.81348 4.40314 8.81564 5.38873 8.21001 5.99969L7.54719 6.66251V6.66282Z" fill="#516CF7"/>
</g>
<defs>
<clipPath id="clip0_2_223">
<rect width="12" height="12" rx="6" fill="white"/>
</clipPath>
</defs>
</svg>
